<svg viewBox="0 0 300 300" xml:space="preserve" xmlns="http://www.w3.org/2000/svg"><path d="M39.223 255.856c1.975-6.86 5.197-13.173 7.877-19.764 3.069-7.548 5.603-15.302 8.681-22.85 5.839-14.319 13.592-28.257 21.056-41.785 3.622-6.564 8.622-10.966 14.528-15.436 6.063-4.588 11.8-9.555 17.348-14.751 10.945-10.251 20.994-21.419 31.477-32.132 10.956-11.197 22.275-22.033 33.264-33.199 5.203-5.287 10.414-10.615 15.255-16.238 4.902-5.695 9.131-11.933 14.026-17.638 4.224-4.922 8.886-9.806 15.27-11.694 5.925-1.751 11.992 1.661 16.754 4.806 4.753 3.138 8.924 7.13 13.276 10.78 4.439 3.723 9.139 7.04 13.318 11.076 3.888 3.754 7.059 8.076 8.331 13.387 1.405 5.861-2.235 11.747-5.397 16.341-7.595 11.035-19.659 18.932-29.106 28.27-10.251 10.133-19.519 21.21-29.609 31.499-11.139 11.355-22.478 22.506-33.406 34.065-10.282 10.876-20.02 22.251-30.291 33.138-4.561 4.833-9.213 9.121-14.356 13.296-1.002.813-2.072 1.998-2.736 3.112 1.481-2.486 3.035-1.947.03-1.307-2.867.61-5.679 1.562-8.472 2.438-26.406 8.296-54.29 11.121-81.069 18.093-6.236 1.623-3.588 11.269 2.658 9.643 26.767-6.969 54.709-9.691 81.069-18.093 3.895-1.241 10.113-1.625 13.274-4.26a176.8 176.8 0 0 0 13.063-12.086c10.789-11.038 20.791-22.81 31.29-34.117 10.82-11.654 22.133-22.843 33.328-34.134 10.627-10.717 20.452-22.18 31.029-32.942 14.884-15.144 47.839-34.843 36.721-60.492-4.565-10.533-14.039-16.964-22.597-23.999-8.84-7.266-17.38-16.033-29.014-18.43-13.171-2.713-23.48 6.441-31.421 15.695-4.563 5.317-8.555 11.095-13.034 16.48-5.135 6.174-10.945 11.859-16.573 17.579-10.987 11.166-22.302 22.003-33.258 33.201-10.469 10.7-20.542 21.779-31.474 32.018-10.445 9.783-23.757 17.064-31.289 29.517-7.851 12.981-14.672 27.14-20.909 40.959-3.563 7.896-6.362 16.115-9.37 24.23-2.884 7.78-6.879 15.061-9.183 23.064-1.79 6.213 7.861 8.846 9.641 2.66z" fill="#6292d2" class="fill-2f353a"></path><path d="M68.897 171.004c5.875.851 11.879 1.099 17.613 2.729 3.519 1.001 6.856 3.877 9.768 6.007 3.876 2.833 7.582 6.008 11.074 9.298 5.699 5.371 9.783 11.875 12.904 19.001 1.518 3.467 2.813 7.034 4.231 10.542 1.971 4.875 2.307 9.498 2.969 14.649.203 1.576 2.705 1.596 2.5 0-.552-4.301-.512-8.597-1.976-12.724-1.327-3.741-2.985-7.428-4.471-11.112-2.958-7.336-6.761-13.938-12.101-19.801-6.196-6.803-14.28-13.101-22.352-17.544-5.488-3.021-13.436-2.579-19.495-3.456-1.576-.228-2.254 2.181-.664 2.411zM194.027 47.429c27.986 5.283 48.8 30.086 63.012 52.997.848 1.367 3.011.112 2.158-1.262-14.542-23.443-35.881-48.742-64.506-54.146-1.575-.297-2.247 2.112-.664 2.411zM184.536 59.125c1.612 0 1.612-2.5 0-2.5s-1.612 2.5 0 2.5z" fill="#6292d2" class="fill-2f353a"></path><path d="M184.868 59.081c3.625-1.094 10.472 4.265 13.358 6.021 4.9 2.981 9.428 6.444 14.129 9.707 14.285 9.916 27.674 23.206 33.43 39.957.521 1.515 2.936.864 2.41-.665-6.028-17.543-19.765-30.927-34.577-41.45-5.319-3.778-10.557-7.591-16.172-10.937-3.18-1.895-9.198-6.264-13.242-5.044-1.539.464-.883 2.877.664 2.411z" fill="#6292d2" class="fill-2f353a"></path><path d="M93.455 175.748c10.344-7.585 18.466-17.635 28.095-26.046 9.966-8.706 19.886-17.314 29.554-26.359 9.688-9.063 19.352-18.154 28.494-27.773 8.462-8.904 15.545-18.883 23.773-27.97 1.079-1.191-.684-2.965-1.768-1.768-7.422 8.196-13.849 17.192-21.327 25.35-8.963 9.777-18.649 18.877-28.321 27.942-9.65 9.044-19.314 17.939-29.429 26.464-10.525 8.87-19.219 19.853-30.333 28.002-1.285.942-.04 3.113 1.262 2.158zM113.395 193.231c4.105-3.069 7.236-7.435 10.699-11.187 4.867-5.273 10.112-10.189 15.416-15.017 11.159-10.158 22.396-20.002 32.643-31.112 9.479-10.278 18.444-21.014 28.197-31.039a204.575 204.575 0 0 1 15.717-14.536c2.862-2.384 4.985-5.5 7.676-8.081 1.165-1.118-.604-2.883-1.768-1.768-2.24 2.148-4.238 4.567-6.255 6.923-2.242 2.62-5.664 4.749-8.242 7.079-2.628 2.376-5.158 4.858-7.663 7.363-9.882 9.883-18.845 20.646-28.236 30.984-9.759 10.744-20.398 20.379-31.202 30.043-5.321 4.76-10.535 9.63-15.526 14.735-4.223 4.321-7.868 9.825-12.716 13.451-1.277.957-.032 3.129 1.26 2.162zM123.776 212.07c20.233-16.288 37.332-36.028 55.779-54.226 19.586-19.322 38.819-38.685 57.11-59.251 1.067-1.2-.694-2.975-1.768-1.768-17.86 20.082-36.565 39.073-55.735 57.898-18.943 18.602-36.424 38.891-57.154 55.579-1.256 1.011.525 2.769 1.768 1.768zM194.464 61.201c4.181-3.11 6.764-7.537 10.041-11.488 1.021-1.231-.737-3.01-1.768-1.768-3.106 3.745-5.574 8.151-9.535 11.098-1.277.95-.033 3.122 1.262 2.158zM199.939 64.371c2.971-4.222 6.893-7.609 10.096-11.641.991-1.248-.765-3.03-1.768-1.768-3.338 4.201-7.39 7.745-10.486 12.147-.93 1.322 1.239 2.569 2.158 1.262z" fill="#6292d2" class="fill-2f353a"></path><path d="M205.931 66.979c3.089-4.202 6.444-8.086 10.485-11.402 1.247-1.023-.532-2.782-1.768-1.768-4.207 3.453-7.663 7.537-10.876 11.908-.957 1.301 1.215 2.546 2.159 1.262zM209.413 71.465c4.06-4.503 9.463-7.454 12.92-12.537.91-1.337-1.258-2.586-2.158-1.262-3.316 4.875-8.628 7.703-12.529 12.031-1.077 1.195.686 2.969 1.767 1.768zM215.527 75.098c3.249-4.345 7.317-7.985 11.071-11.877 1.119-1.16-.646-2.93-1.768-1.768-3.91 4.054-8.078 7.856-11.462 12.383-.966 1.293 1.206 2.537 2.159 1.262zM220.18 79.052c4.629-2.941 7.806-8.111 10.974-12.462.951-1.306-1.22-2.551-2.158-1.262-2.903 3.986-5.833 8.868-10.077 11.565-1.357.862-.105 3.027 1.261 2.159zM225.44 83.39c3.531-4.16 7.489-7.931 11.021-12.091 1.037-1.221-.723-2.999-1.768-1.768-3.532 4.16-7.489 7.931-11.021 12.091-1.036 1.221.724 2.999 1.768 1.768zM230.033 87.006c2.772-4.069 5.824-8.032 9.667-11.151 1.252-1.017-.528-2.774-1.768-1.768-4.001 3.248-7.172 7.421-10.058 11.657-.91 1.337 1.258 2.586 2.159 1.262zM232.139 90.852c4.327-2.958 8.684-6.408 11.244-11.078.775-1.414-1.383-2.675-2.158-1.262-2.353 4.289-6.374 7.464-10.348 10.181-1.322.904-.073 3.072 1.262 2.159zM236.829 94.772a166.018 166.018 0 0 0 10.108-11.443c1-1.243-.757-3.024-1.768-1.768a166.253 166.253 0 0 1-10.108 11.443c-1.121 1.159.645 2.928 1.768 1.768zM239.913 98.966c3.253-3.326 6.227-8.324 10.62-10.222 1.477-.638.202-2.791-1.262-2.158-4.627 1.999-7.71 7.121-11.126 10.613-1.127 1.152.639 2.921 1.768 1.767zM243.335 104.163c3.177-4.214 7.506-7.449 9.992-12.184.749-1.426-1.408-2.689-2.158-1.262-2.47 4.702-6.828 7.986-9.992 12.184-.972 1.288 1.201 2.532 2.158 1.262zM46.821 225.319c3.529-.493 8.937 2.704 11.442 4.981 3.94 3.58 4.698 9.087 5.471 14.042.248 1.59 2.657.912 2.411-.664-.928-5.949-2.163-12.131-7.194-16.052-3.177-2.476-8.625-5.301-12.795-4.718-1.591.223-.911 2.632.665 2.411z" fill="#6292d2" class="fill-2f353a"></path><path d="m38.913 237.869 2.05 13.156c.762-.32 1.523-.642 2.285-.963-.746-1.521-1.633-2.881-2.551-4.303-.649-1.006-2.362-.664-2.329.631.046 1.816.096 3.538-.107 5.345l2.134-.884c-1.023-.98-2.035-1.917-2.972-2.983-.795-.905-2.561.049-2.089 1.216.55 1.362 1.115 2.541 1.923 3.778.461.706 1.753.916 2.158 0 1.59-3.591 1.383-6.963.484-10.733-.762.32-1.523.642-2.285.963 1.497 2.512 2.596 5.168 3.656 7.887.491 1.26 2.452 1.162 2.456-.332.01-4.423-1.806-8.249-3.175-12.38l-2.089 1.216c3.16 3.415 4.681 7.555 6.012 11.938.434 1.429 2.302 1.021 2.456-.332.624-5.489-2.746-9.655-4.169-14.733l-2.089 1.216c3.698 3.401 4.622 8.333 6.461 12.808.505 1.229 2.471 1.184 2.456-.332-.062-6.033-3.801-10.534-5.631-16.07l-2.089 1.216c3.467 3.624 5.122 8.114 6.768 12.76.546 1.542 2.66.913 2.411-.664-.807-5.104-3.938-9.062-5.606-13.856l-2.089 1.216c4.216 3.744 5.745 9.156 8.002 14.14.63 1.393 2.493.321 2.285-.963-.961-5.932-5.081-10.312-7.165-15.808l-2.089 1.216c5.067 4.711 6.43 11.799 9.798 17.621.691 1.195 2.821.38 2.285-.963-2.563-6.417-7.448-11.608-9.429-18.275l-2.089 1.216c5.471 4.383 7.61 11.14 11.539 16.724.766 1.089 2.784.458 2.285-.963-2.332-6.637-7.261-11.799-10.12-18.173l-1.963 1.515c4.969 4.179 8.63 9.546 11.912 15.097l1.963-1.515c-5.497-4.772-10.497-10.719-12.568-17.811l-2.089 1.216c4.758 5.594 9.243 11.385 13.518 17.354l1.963-1.515c-4.745-4.994-8.341-10.78-11.845-16.675l-1.412 1.836c8.389 1.852 12.708 12.839 14.941 20.167-.057-.188-7.501-.82-8.767-1.037-2.553-.438-5.103-1.018-7.687-1.24-1.607-.139-1.594 2.363 0 2.5 2.315.199 19.122 4.869 19.078.17-.04-4.243-3.566-9.914-5.644-13.433-2.543-4.309-6.205-8.422-11.257-9.537-1.042-.23-1.997.852-1.412 1.836 3.615 6.082 7.343 12.032 12.235 17.181.962 1.014 2.8-.346 1.963-1.515-4.399-6.145-9.011-12.104-13.908-17.86-.829-.975-2.426.063-2.089 1.216 2.188 7.488 7.399 13.867 13.212 18.914 1.042.904 2.716-.241 1.963-1.515-3.381-5.718-7.183-11.297-12.303-15.603-1.118-.94-2.547.212-1.963 1.515 2.767 6.167 7.614 11.162 9.867 17.575l2.285-.963c-4.057-5.769-6.277-12.702-11.929-17.229-.909-.729-2.477-.089-2.089 1.216 1.993 6.705 6.86 11.845 9.429 18.275l2.285-.963c-3.489-6.032-4.932-13.24-10.189-18.127-.848-.788-2.56-.026-2.089 1.216 2.069 5.458 6.214 9.939 7.165 15.808l2.285-.963c-2.352-5.193-4.003-10.748-8.393-14.646-.869-.771-2.529-.047-2.089 1.216 1.657 4.761 4.807 8.797 5.606 13.856l2.411-.664c-1.793-5.063-3.641-9.922-7.411-13.863-.847-.886-2.485.018-2.089 1.216 1.726 5.222 5.485 9.729 5.542 15.406l2.456-.332c-2.017-4.906-3.058-10.189-7.104-13.911-.901-.829-2.438-.027-2.089 1.216 1.341 4.782 4.667 8.908 4.081 14.069l2.456-.332c-1.463-4.815-3.192-9.298-6.656-13.041-.837-.905-2.482.029-2.089 1.216 1.287 3.881 3.096 7.546 3.086 11.716l2.456-.332c-1.142-2.929-2.296-5.778-3.909-8.484-.737-1.237-2.612-.409-2.285.963.739 3.098 1.125 5.745-.231 8.808h2.158a12.252 12.252 0 0 1-1.67-3.181l-2.089 1.216c.937 1.066 1.948 2.003 2.972 2.983.849.813 2.016.167 2.134-.884.203-1.807.153-3.528.107-5.345l-2.329.631c.917 1.422 1.805 2.782 2.551 4.303.675 1.376 2.486.328 2.285-.963l-2.05-13.156c-.258-1.594-2.667-.916-2.421.66z" fill="#6292d2" class="fill-2f353a"></path><path d="M51.568 229.364c2.585 1.668 5.143 3.5 6.13 6.558l1.538-1.537c-.697-.263-1.145-.755-1.576-1.341-.943-1.285-3.114-.04-2.158 1.262.849 1.156 1.711 1.979 3.069 2.489.889.335 1.815-.68 1.538-1.537-1.202-3.723-4.11-6.007-7.279-8.052-1.359-.877-2.611 1.288-1.262 2.158z" fill="#6292d2" class="fill-2f353a"></path><path d="M52.343 234.545a44.152 44.152 0 0 1 2.499 4.671c.543 1.169 2.329.544 2.329-.631 0-1.792-.876-3.323-1.97-4.683-.925-1.149-2.602.315-1.963 1.515.334.629.713 1.232 1.048 1.861.757 1.424 2.915.161 2.158-1.262-.334-.629-.713-1.232-1.048-1.861l-1.963 1.515c.67.832 1.237 1.822 1.237 2.915l2.329-.631a43.873 43.873 0 0 0-2.499-4.671c-.846-1.366-3.01-.112-2.157 1.262z" fill="#6292d2" class="fill-2f353a"></path><path d="M59.584 229.563a3.092 3.092 0 0 0-.412-.218c.032-.612-.164-1.251-.522-1.822-.601-.959-2.086-1.398-3.098-.86a2.953 2.953 0 0 0-.776.594c-.039-.021-.076-.047-.116-.067-.557-.52-1.192-.931-2.042-1.152-.69-.18-1.432-.045-2.058.284-.862-.194-1.707.793-1.412 1.666-.152.621-.004 1.31.617 1.956.07.072.148.131.218.201.838 1.636 1.741 3.217 2.765 4.731.161.902.324 1.805.469 2.71-.45.197-.771.634-.638 1.268.155.739.399 1.453.632 2.169-2.379.205-2.552 4.339.239 5.028 3.789.934 10.296 1.855 11.009-3.25.63-4.494-.834-10.655-4.875-13.238zM64.273 228.657c5.618 3.477 7.347 12.19 7.233 18.316-.015.807 1.235.805 1.25 0 .123-6.61-1.809-15.655-7.853-19.396-.687-.425-1.314.656-.63 1.08z" fill="#6292d2" class="fill-2f353a"></path><path d="M67.917 228.089c4.931 4.713 7.287 11.011 8.325 17.637.124.795 1.329.456 1.205-.332-1.069-6.832-3.57-13.338-8.646-18.189-.582-.558-1.467.325-.884.884z" fill="#6292d2" class="fill-2f353a"></path><path d="M71.688 227.146c3.747 4.75 6.076 9.971 6.417 16.058.045.802 1.295.806 1.25 0-.361-6.449-2.812-11.906-6.783-16.942-.499-.633-1.377.258-.884.884zM74.753 225.496c4.464 4.309 5.404 10.448 7.618 15.986.295.739 1.505.417 1.205-.332-2.302-5.761-3.301-12.062-7.939-16.539-.58-.559-1.465.324-.884.885zM78.053 223.61c5.104 4.829 7.892 10.881 7.831 17.942-.007.807 1.243.806 1.25 0 .064-7.369-2.869-13.785-8.197-18.827-.585-.552-1.471.33-.884.885zM82.531 221.96c4.399 5.029 6.449 10.913 7.617 17.401.143.793 1.347.456 1.205-.332-1.212-6.73-3.388-12.751-7.938-17.954-.532-.607-1.412.28-.884.885zM85.36 220.075c5.232 5.056 7.271 12.579 9.503 19.287.253.761 1.46.435 1.205-.332-2.296-6.901-4.439-14.636-9.825-19.84-.579-.559-1.464.324-.883.885zM89.206 217.677c1.031 3.092 4.003 5.493 5.689 8.349 2.313 3.917 4.034 8.18 5.923 12.308.335.732 1.412.097 1.079-.631-1.709-3.734-3.345-7.498-5.267-11.13-.856-1.618-1.842-3.159-2.859-4.679-1.028-1.537-2.772-2.785-3.361-4.549-.253-.761-1.46-.435-1.204.332zM93.041 215.941c.512.954 1.421 1.685 2.175 2.44 2.152 2.156 3.602 4.474 4.731 7.311 1.837 4.618 2.425 9.557 4.643 14.055.356.723 1.435.089 1.079-.631-2.372-4.812-3.082-10.147-5.054-15.106-1.467-3.687-4.74-5.428-6.495-8.699-.381-.711-1.46-.08-1.079.63zM96.277 213.435c1.347 3.48 4.419 5.928 6.248 9.178 2.291 4.072 3.285 8.845 5.129 13.128.318.738 1.395.102 1.079-.631-1.676-3.893-2.81-7.982-4.508-11.866-1.649-3.774-5.29-6.387-6.743-10.141-.288-.744-1.497-.421-1.205.332zM99.973 213.004c6.509 6.837 10.308 15.851 14.045 24.386.323.737 1.399.1 1.079-.631-3.786-8.647-7.646-17.712-14.24-24.64-.557-.584-1.44.301-.884.885zM104.825 211.698c1.493 3.143 4.63 5.779 6.474 8.801 2.902 4.757 4.98 10.015 7.433 15.006.355.724 1.433.09 1.079-.631-2.463-5.014-4.665-10.147-7.433-15.006-1.742-3.056-5.002-5.703-6.474-8.801-.345-.727-1.423-.092-1.079.631zM108.125 208.869c4.911 8.586 11.428 16.119 14.786 25.543.269.754 1.477.429 1.205-.332-3.395-9.528-9.945-17.159-14.912-25.842-.4-.699-1.48-.07-1.079.631zM113.719 204.007c1.87 4.446 5.188 7.795 6.916 12.382 1.809 4.798 2.924 9.765 5.168 14.401.351.726 1.429.091 1.079-.631-2.189-4.522-3.416-9.369-5.042-14.104-1.594-4.641-5.047-7.938-6.917-12.381-.307-.731-1.517-.409-1.204.333zM117.019 200.706c.771 4.033 3.748 7.069 6.328 10.093 4.008 4.699 5.55 10.487 8.584 15.749.402.698 1.483.068 1.079-.631-2.586-4.484-3.963-9.557-6.993-13.79-2.73-3.815-6.869-6.926-7.793-11.753-.151-.791-1.356-.455-1.205.332zM119.772 200.275c6.347 6.567 10.363 14.634 15.223 22.266.431.678 1.514.051 1.079-.631-4.917-7.723-9-15.878-15.418-22.52-.561-.579-1.444.305-.884.885zM122.365 198.626c6.733 5.223 11.509 12.812 16.402 19.672.463.65 1.548.027 1.079-.631-4.938-6.923-9.802-14.654-16.597-19.926-.629-.487-1.52.391-.884.885zM124.486 195.091c3.583 3.418 7.598 6.243 10.819 10.039 3.411 4.02 5.81 8.737 9.451 12.588.555.586 1.437-.299.884-.885-3.315-3.505-5.615-7.687-8.571-11.463-3.39-4.33-7.755-7.4-11.699-11.164-.583-.556-1.468.327-.884.885zM127.913 192.831c7.247 5.518 13.059 12.551 19.437 18.994.568.573 1.451-.312.884-.885-6.459-6.524-12.352-13.602-19.69-19.189-.642-.488-1.264.599-.631 1.08zM131.46 188.835c5.457 7.837 12.455 14.392 19.189 21.104.572.569 1.455-.314.884-.885-6.656-6.633-13.601-13.104-18.994-20.851-.457-.655-1.541-.031-1.079.632zM135.564 185.897c6.467 6.664 11.053 15.18 18.747 20.604.661.465 1.285-.619.631-1.08-7.587-5.349-12.114-13.835-18.494-20.409-.562-.578-1.446.306-.884.885zM138.767 182.942c4.296 7.777 12.109 14.315 19.316 19.316.664.46 1.288-.624.631-1.08-6.989-4.849-14.703-11.327-18.868-18.867-.39-.706-1.47-.075-1.079.631zM141.457 180.005c6.022 5.604 11.639 11.615 17.442 17.442.569.571 1.453-.313.885-.885-5.804-5.826-11.42-11.837-17.443-17.442-.59-.548-1.476.334-.884.885zM145.7 176.234c6.142 6.116 12.479 12.032 18.62 18.149.572.568 1.456-.315.885-.885-6.142-6.116-12.479-12.032-18.621-18.149-.572-.568-1.456.316-.884.885zM149.471 172.935l15.32 15.32c.571.57 1.455-.313.885-.885l-15.321-15.32c-.571-.571-1.455.313-.884.885zM153.242 168.692c5.53 6.558 11.731 12.802 18.747 17.774.659.467 1.282-.618.631-1.08-6.92-4.904-13.039-11.109-18.494-17.579-.521-.616-1.399.273-.884.885zM155.961 165.726c6.866 3.531 11.533 10.064 16.844 15.458.566.574 1.45-.31.885-.885-5.391-5.473-10.127-12.067-17.098-15.653-.715-.368-1.348.71-.631 1.08zM158.083 162.661c6.953 5.257 12.408 12.188 19.563 17.207.662.464 1.285-.621.631-1.08-7.149-5.015-12.609-11.95-19.563-17.207-.644-.486-1.265.601-.631 1.08zM160.911 158.89c7.485 4.936 12.967 11.97 19.2 18.288.567.574 1.451-.311.885-.885-6.312-6.396-11.878-13.488-19.454-18.483-.675-.445-1.301.637-.631 1.08zM164.446 155.354c7.166 5.436 13.123 12.165 19.437 18.522.569.572 1.453-.313.885-.885-6.395-6.438-12.435-13.213-19.69-18.718-.643-.486-1.265.601-.632 1.081zM168.326 153.607c6.926 5.84 12.405 13.49 20.398 18.011.702.396 1.332-.683.631-1.08-7.898-4.466-13.302-12.044-20.145-17.815-.611-.516-1.5.364-.884.884zM170.811 150.404c6.285 4.139 10.644 10.463 16.734 14.85.655.472 1.278-.613.631-1.08-6.091-4.386-10.441-10.705-16.734-14.85-.676-.444-1.301.639-.631 1.08zM174.219 146.771c5.779 5.384 10.943 11.367 16.5 16.971.568.572 1.452-.312.885-.885-5.558-5.604-10.722-11.586-16.5-16.97-.589-.549-1.476.334-.885.884zM177.755 142.765c5.938 5.056 11.227 10.768 16.499 16.499.547.594 1.429-.292.885-.885-5.273-5.73-10.562-11.442-16.499-16.498-.611-.52-1.499.36-.885.884zM181.055 139.936c5.649 5.263 10.578 11.128 15.32 17.207.496.635 1.374-.257.885-.885-4.742-6.078-9.672-11.943-15.32-17.206-.589-.549-1.476.333-.885.884zM182.831 136.498c7.214 4.775 12.258 12.169 18.494 18.052.586.552 1.472-.33.885-.885-6.323-5.963-11.433-13.404-18.748-18.246-.675-.446-1.3.637-.631 1.079zM186.947 132.629c6.499 5.62 12.751 11.441 18.148 18.149.506.628 1.385-.263.885-.885-5.397-6.707-11.65-12.529-18.148-18.148-.607-.524-1.495.356-.885.884zM190.482 129.447c6.436 6.078 12.876 12.153 19.799 17.678.624.498 1.515-.381.885-.884-6.924-5.525-13.364-11.6-19.799-17.678-.586-.553-1.471.33-.885.884zM193.614 126.54c7.053 3.485 11.318 10.14 16.844 15.458.581.559 1.466-.324.885-.884-5.607-5.397-9.944-12.119-17.098-15.654-.72-.356-1.353.723-.631 1.08zM195.865 122.426c1.79 2.823 4.899 4.397 7.589 6.234 4.188 2.861 7.351 7.57 10.266 11.621.467.648 1.552.025 1.08-.631-2.588-3.594-5.304-7.037-8.406-10.203-2.847-2.904-7.215-4.128-9.448-7.651-.431-.679-1.513-.053-1.081.63zM200.305 120.415c7.206 2.928 11.623 10.209 16.871 15.573.565.577 1.448-.308.885-.884-5.45-5.568-9.94-12.854-17.424-15.894-.747-.304-1.069.906-.332 1.205zM203.69 116.109c4.172 2.509 7.895 5.512 11.364 8.918 2.524 2.478 4.475 5.312 7.551 7.169.691.418 1.319-.663.631-1.079-3.654-2.207-6.169-5.944-9.246-8.85-2.938-2.774-6.211-5.158-9.669-7.237-.692-.416-1.32.665-.631 1.079zM206.923 111.946c5.33 5.847 12.379 9.815 17.227 16.137.483.63 1.57.009 1.08-.631-4.922-6.417-12.015-10.458-17.422-16.39-.545-.597-1.426.29-.885.884zM210.938 108.155c6.705 3.265 11.911 9.773 15.686 16.039.416.689 1.497.062 1.08-.631-3.887-6.451-9.234-13.128-16.135-16.487-.721-.352-1.355.726-.631 1.079zM215.055 103.814c5.612 5.595 11.34 11.069 16.439 17.147.52.618 1.398-.271.885-.884-5.101-6.078-10.828-11.552-16.439-17.147-.572-.569-1.457.315-.885.884zM219.07 100.376c7.663 4.428 12.047 12.27 18.081 18.464.563.578 1.447-.306.885-.884-6.115-6.277-10.57-14.172-18.335-18.659-.699-.404-1.328.677-.631 1.079zM221.064 96.743c2.56 3.01 6.176 4.601 9.192 7.071 3.35 2.742 5.52 6.747 8.662 9.723.585.554 1.471-.329.885-.884-3.169-3-5.494-6.724-8.662-9.723-2.846-2.693-6.606-4.03-9.192-7.071-.523-.615-1.403.274-.885.884zM224.551 93.482c7.259 4.102 11.35 11.276 16.667 17.403.529.61 1.41-.278.885-.884-5.396-6.217-9.56-13.439-16.921-17.599-.703-.396-1.332.683-.631 1.08zM228.313 88.081c6.654 6.123 11.724 13.477 16.52 21.087.429.68 1.511.053 1.08-.631-4.856-7.705-9.979-15.142-16.715-21.34-.594-.545-1.479.337-.885.884zM230.384 86.234c8.074 3.929 12.639 11.226 17.63 18.337.46.654 1.544.031 1.08-.631-5.107-7.277-9.821-14.768-18.079-18.786-.722-.35-1.356.728-.631 1.08zM234.627 81.992c8.333 4.2 13.012 12.85 18.337 20.105.472.643 1.558.02 1.08-.631-5.444-7.417-10.264-16.258-18.786-20.553-.718-.362-1.351.716-.631 1.079zM238.339 78.633c8.112 4.67 12.106 13.321 18.611 19.701.576.564 1.461-.319.885-.884-6.595-6.468-10.638-15.16-18.865-19.896-.7-.403-1.329.677-.631 1.079zM242.229 75.097c7.223 4.836 12.232 12.157 18.258 18.287.566.576 1.449-.309.885-.884-6.109-6.215-11.189-13.579-18.512-18.482-.672-.45-1.297.633-.631 1.079zM245.813 70.58c3.593 3.492 7.489 6.598 10.508 10.634 2.957 3.955 5.313 8.266 8.584 11.993.533.607 1.414-.281.885-.884-3.554-4.049-5.985-8.843-9.35-13.02-2.874-3.568-6.47-6.425-9.742-9.607-.578-.562-1.463.322-.885.884zM248.642 67.398c6.61 5.704 12.14 12.242 17.227 19.319.466.648 1.551.025 1.08-.631-5.145-7.156-10.733-13.8-17.422-19.572-.608-.523-1.497.357-.885.884zM253.012 63.96c7.36 4.389 11.688 11.99 15.509 19.398.37.717 1.448.084 1.08-.631-3.924-7.605-8.409-15.345-15.958-19.846-.695-.414-1.323.667-.631 1.079zM255.89 59.443c5.718 5.686 11.728 11.218 14.929 18.789.313.74 1.39.103 1.08-.631-3.242-7.667-9.331-13.281-15.124-19.042-.573-.568-1.457.316-.885.884z" fill="#6292d2" class="fill-2f353a"></path></svg>