<svg fill="none" viewBox="0 0 128 128" xmlns="http://www.w3.org/2000/svg"><path clip-rule="evenodd" d="m37.04 66.655 23.407 8.788a8 8 0 0 0 5.653-.01l22.862-8.685v16.747c0 5.145-11.623 9.316-25.96 9.316-14.338 0-25.961-4.171-25.961-9.316v-16.84Z" fill="#5f90d9" fill-rule="evenodd" class="fill-000000"></path><path d="M110.065 79.205c.781-1.434 1.664-3.296 2.412-4.952.582-1.29 2.239-1.574 2.951-.352 1.249 2.14 2.072 4.693 2.481 6.394.13.54.016 1.126-.4 1.496-1.761 1.566-4.481 1.146-6.593.346-1.133-.43-1.431-1.868-.851-2.932Z" fill="#ffffff" class="fill-ffffff"></path><path clip-rule="evenodd" d="M114.04 74.126c-.223.03-.497.195-.652.538-.751 1.664-1.646 3.553-2.445 5.02-.169.31-.206.674-.128.97.075.284.237.464.456.547.988.375 2.074.642 3.081.65 1 .008 1.852-.237 2.493-.808.072-.063.159-.234.092-.514-.397-1.647-1.191-4.098-2.372-6.124-.143-.246-.332-.306-.525-.28Zm-.273-1.982c.959-.132 1.956.277 2.525 1.253l-.864.504m-1.661-1.757c-.929.129-1.774.75-2.202 1.697l2.202-1.697Zm2.525 1.253c1.315 2.254 2.167 4.91 2.589 6.664.193.801.052 1.802-.707 2.477-1.12.996-2.51 1.324-3.838 1.313-1.321-.01-2.651-.353-3.775-.78-1.876-.711-2.145-2.928-1.375-4.344.764-1.401 1.635-3.237 2.379-4.886" fill="#5f90d9" fill-rule="evenodd" class="fill-000000"></path><path clip-rule="evenodd" d="M112.252 71.61a1 1 0 0 1 1.407.14c.343.419.519 1.035.63 1.548.121.565.205 1.226.263 1.89.116 1.333.136 2.775.119 3.7a1 1 0 0 1-1.999-.036 36.36 36.36 0 0 0-.112-3.49 13.991 13.991 0 0 0-.226-1.643 4.08 4.08 0 0 0-.148-.535c-.046-.125-.077-.17-.077-.17l.002.002a1 1 0 0 1 .141-1.407Z" fill="#5f90d9" fill-rule="evenodd" class="fill-000000"></path><path clip-rule="evenodd" d="M113.475 52.306a1.5 1.5 0 0 1 1.5 1.5v16.611a1.5 1.5 0 0 1-3 0V53.806a1.5 1.5 0 0 1 1.5-1.5Z" fill="#5f90d9" fill-rule="evenodd" class="fill-000000"></path><path d="M117.603 71.007a4.128 4.128 0 1 1-8.256 0 4.128 4.128 0 0 1 8.256 0ZM60.155 33.1l-48.47 19.313c-.896.357-.883 1.63.02 1.969l48.608 18.251a8.443 8.443 0 0 0 5.966-.011l48.023-18.242c.898-.34.91-1.606.02-1.965L66.436 33.112a8.443 8.443 0 0 0-6.281-.012Z" fill="#5f90d9" class="fill-000000"></path><path clip-rule="evenodd" d="M100.016 55.527a1 1 0 0 1-.597 1.282L65.214 69.292a1 1 0 0 1-.686-1.878L98.734 54.93a1 1 0 0 1 1.282.596ZM19.567 53.212a1 1 0 0 1 1.283-.594l11.432 4.193a1 1 0 0 1-.689 1.878l-11.432-4.194a1 1 0 0 1-.594-1.283Z" fill="#ffffff" fill-rule="evenodd" class="fill-ffffff"></path></svg>