<svg viewBox="0 0 300 300" xml:space="preserve" xmlns="http://www.w3.org/2000/svg"><path d="M224.354 68.159c-7.408-19.863-22.036-35.763-41.609-43.99-19.917-8.371-44.081-6-63.445 2.709-24.952 11.223-37.066 36.631-39.446 62.7-3.334 36.53 12.825 69.078 26.322 101.845-3.317 3.295-5.003 8.228-5.365 12.965-.297 3.886 1.045 7.163 3.284 9.799-4.204 8.291-2.826 16.359 3.511 22.02-1.204 4.043-1.171 8.792-.536 12.719.856 5.295 4.524 8.675 9.073 10.952 1.598 13.332 15.645 19.928 28.19 20.924 15.381 1.222 32.145-6.433 35.681-22.521 8.147-5.058 9.751-13.709 6.335-22.042 5.918-4.798 8.752-11.455 4.98-20.378 1.678-1.931 2.937-4.208 3.558-6.753 1.306-5.351.188-12.125-3.145-16.827 8.922-19.479 22.991-36.038 31.511-55.687 9.344-21.549 9.278-46.509 1.101-68.435zM103.355 51.888c8.989-12.091 23.095-18.817 37.783-21.462-2.223.912-4.384 2.005-6.454 3.359-.671.439-.046 1.522.631 1.079 3.932-2.572 8.179-4.216 12.581-5.369a86.819 86.819 0 0 1 9.139-.396c-6.104 1.174-12.104 2.755-17.951 5.048-.742.291-.419 1.5.332 1.205 7.517-2.948 15.29-4.719 23.212-5.957 3.143.315 6.22.878 9.214 1.676-10.104 1.076-20.228 1.474-29.812 5.546-.74.314-.102 1.391.631 1.079 10.287-4.372 21.317-4.429 32.199-5.735a59.333 59.333 0 0 1 5.776 2.213c-3.113.026-6.236-.013-9.34.19-7.311.479-14.231 3.163-21.45 4.189-.795.113-.456 1.317.332 1.205 7.686-1.092 14.968-3.741 22.765-4.252 3.373-.221 6.732-.146 10.071-.207a61.517 61.517 0 0 1 6.646 3.845c-3.436-.17-6.887-.509-10.313-.281-5.737.381-11.36 2.024-16.833 3.689-.77.234-.441 1.44.332 1.205 6.426-1.954 12.924-3.689 19.683-3.767 3-.035 5.96.266 8.904.377a63.63 63.63 0 0 1 4.259 3.333c-9.196-.714-18.572-1.524-26.994 2.581-.725.353-.091 1.431.631 1.079 8.624-4.204 18.432-3.05 27.894-2.31a64.805 64.805 0 0 1 3.59 3.523c-9.069-.497-18.079-.131-27.132.956-.79.095-.799 1.346 0 1.25 9.458-1.136 18.87-1.478 28.351-.877a66.432 66.432 0 0 1 3.228 3.925c-8.751-.081-17.498-.341-26.245-.632-.807-.027-.804 1.223 0 1.25 9.059.301 18.118.57 27.181.64.68.937 1.339 1.891 1.973 2.867-8.274.225-16.537.787-24.819.578-.807-.021-.805 1.229 0 1.25 8.543.216 17.066-.392 25.603-.601l.051.08a71.734 71.734 0 0 1 2.535 4.471c-8.242.95-16.577.593-24.855 1.133-.8.052-.806 1.302 0 1.25 8.483-.553 17.018-.198 25.458-1.21a75.138 75.138 0 0 1 2.986 6.804c-3.353.236-6.754-.725-10.098-1.114-5.164-.601-10.497-.104-15.68-.063-.806.006-.807 1.256 0 1.25 5.24-.041 10.441-.184 15.68.063 3.638.172 7.016 1.335 10.541 1.065.483 1.333.929 2.68 1.34 4.039-8.593.206-17.149-2.798-25.727-.729-.783.189-.451 1.394.332 1.205 8.563-2.066 17.146.944 25.753.729.293 1.029.563 2.065.814 3.105-3.454.09-6.912-.151-10.376-.314-4.711-.221-9.552 1.201-14.191.274-.787-.157-1.122 1.047-.332 1.205 4.763.952 9.686-.396 14.523-.229 3.577.124 7.118.37 10.665.275.36 1.593.671 3.198.937 4.811-8.198.672-16.386 1.441-24.626 1.25-.807-.019-.805 1.231 0 1.25 8.306.193 16.557-.59 24.82-1.266a84.18 84.18 0 0 1 .75 7c-8.302-.052-16.602-.297-24.903-.318-.807-.002-.806 1.248 0 1.25 8.324.021 16.646.269 24.971.319.096 1.917.133 3.838.1 5.756-8.358-.04-16.712-.304-25.07-.326-.807-.002-.806 1.248 0 1.25 8.346.022 16.687.285 25.032.325a84.503 84.503 0 0 1-.345 5.422c-8.342-.029-16.68-.308-25.021-.33-.807-.002-.806 1.248 0 1.25 8.297.022 16.59.297 24.887.329a84.9 84.9 0 0 1-.522 3.872c-8.509.459-17.18 1.958-25.531-.096-.782-.192-1.114 1.013-.332 1.205 8.408 2.067 17.094.616 25.651.148a80.857 80.857 0 0 1-.882 4.333c-8.539.014-17.062-.653-25.604-.709-.807-.005-.806 1.245 0 1.25 8.441.056 16.865.71 25.304.711a78.632 78.632 0 0 1-.82 3.039h-25.816c-.806 0-.806 1.25 0 1.25h25.443a78.074 78.074 0 0 1-1.257 3.748 68.8 68.8 0 0 1-.696 1.819c-7.726 2.508-17.421-.973-25.157-1.149-.807-.019-.805 1.231 0 1.25 7.644.174 16.813 3.346 24.55 1.369a80.99 80.99 0 0 1-1.213 2.731c-8.113.053-16.225.243-24.337-.017-.807-.026-.804 1.224 0 1.25 7.913.254 15.826.08 23.74.021a100.969 100.969 0 0 1-1.73 3.391c-7.783-.06-15.559-.592-23.343-.329-.804.027-.807 1.277 0 1.25 7.561-.256 15.112.236 22.672.32a133.48 133.48 0 0 1-2.004 3.525c-7.765-.618-15.545-.448-23.335-.429-.806.002-.807 1.252 0 1.25 7.556-.018 15.101-.184 22.632.37a231.647 231.647 0 0 1-2.703 4.391c-7.134.149-14.821 1.798-21.763-.321-.772-.236-1.101.971-.332 1.205 6.816 2.082 14.262.63 21.292.387-1.231 1.938-2.476 3.862-3.708 5.778-6.394.725-13.258.548-19.252-1.036-.78-.206-1.111.999-.332 1.205 5.879 1.554 12.458 1.805 18.714 1.189-.617.964-1.233 1.928-1.844 2.894-6.58-.045-13.152-.077-19.704.689-.791.093-.8 1.344 0 1.25 6.293-.736 12.604-.735 18.923-.694a402.163 402.163 0 0 0-1.937 3.111h-19.652c-.806 0-.806 1.25 0 1.25h18.896a270.11 270.11 0 0 0-2.071 3.46c-2.989.132-5.98.601-8.948.934-2.113.236-8.271 1.757-10.102.205-.611-.518-1.5.362-.885.885 1.906 1.614 6.06.64 8.252.442 3.642-.328 7.288-.98 10.944-1.196a226.434 226.434 0 0 0-2.286 4.043c-6.192.063-12.368.361-18.539.902-.69-10.117-1.23-20.243-1.285-30.38 1.644-.448 3.226-1.07 4.773-2.001 1.38-.83.123-2.992-1.262-2.158-1.128.678-2.312 1.169-3.529 1.552.009-2.531.045-5.063.125-7.595.103-3.226-4.897-3.216-5 0-.092 2.89-.118 5.779-.117 8.667-2.604.393-5.248.673-7.769 1.397-.207.06-.411.183-.573.344.249-1.422.316-2.823.313-3.747-.006-1.162-1.8-1.816-2.329-.631-.907 2.031-1.607 4.33-1.43 6.463-.617.093-1.043.002-1.276-.274.857-2.247 1.249-4.84 1.349-6.479.073-1.212-1.797-1.751-2.329-.631-.68 1.43-1.752 4.261-1.703 6.635-.813 1.664-2.17 3.725-2.919 1.553a4.565 4.565 0 0 1-.202-.909c1.419-1.75 2.22-4.338 2.085-8.031-.045-1.225-1.683-1.729-2.329-.631-.806 1.368-2.125 4.753-2.351 7.698-1.429 1.314-3.441 1.765-5.693 1.693.184-4.028.308-8.059.324-12.098.013-3.225-4.987-3.224-5 0a287.404 287.404 0 0 1-.292 11.3 41.387 41.387 0 0 1-2.688-.811c-.084-.543-.481-1.029-1.191-1.029h-1.843c-1.496 0-1.59 1.964-.333 2.456 1.914.747 3.941 1.398 5.955 1.857-.646 12.753-2.014 25.456-3.526 38.143-4.282-.515-8.564-1.07-12.885-1.523-10.549-25.377-23.217-50.487-25.499-78.295-1.647-19.997 1.278-40.988 13.504-57.433zm9.037 175.208c-1.648-2.293-1.119-4.83-.032-7.167 11.052 4.686 23.959 5.383 35.822 5.762 11.53.369 23.738.13 34.603-4.131.113.483.18.954.2 1.409-6.652 1.789-13.374 3.08-20.306 2.897-.807-.021-.805 1.229 0 1.25 6.909.183 13.604-1.071 20.238-2.835a6.58 6.58 0 0 1-.495 1.669c-6.467 1.821-12.96 4.048-19.743 3.916-.807-.016-.805 1.234 0 1.25 6.453.125 12.64-1.831 18.794-3.598-1.239 1.603-3.157 2.947-5.483 4.066-4.786.971-9.761 1.053-14.644 1.281-.803.037-.806 1.288 0 1.25 3.147-.147 6.313-.248 9.441-.549-8.425 2.559-18.857 3.247-23.175 3.122-9.048-.262-18.225-1.368-26.808-4.345-2.96-1.025-6.522-2.617-8.412-5.247zm63.765-13.726c-8.417 2.571-17.626 2.544-26.344 2.364-8.145-.168-16.312-.777-24.315-2.333-4.174-.812-9.286-1.809-12.741-4.479-3.378-2.609-2.207-10.182 2.054-11.277.069-.018.13-.041.197-.062 10.562 1.083 20.856 2.809 31.558 2.951a213.916 213.916 0 0 0 37.021-2.703c.565.643.992 1.503 1.286 2.481-7.494 2.212-15.398 2.831-23.191 2.887-.806.006-.807 1.256 0 1.25 7.876-.056 15.898-.684 23.482-2.919.155.862.225 1.765.21 2.649-7.82 1.368-15.774 1.898-23.524 3.709-.785.184-.452 1.389.332 1.205 7.612-1.778 15.421-2.321 23.107-3.637-.144 1.271-.461 2.429-.952 3.25a5.704 5.704 0 0 1-.688.917c-7.355 1.486-15.119.763-22.467 2.598-.782.195-.45 1.4.332 1.205 6.603-1.648 13.479-1.281 20.131-2.234-1.737 1.023-3.823 1.669-5.488 2.178zm-33.376-62.865c.286.854.788 1.539 1.616 1.906 2.259 1.002 3.915.214 5.112-1.346.301.242.649.449 1.083.589 1.007.323 1.819.223 2.489-.137.31.514.697 1.003 1.198 1.453.646.581 1.898.428 2.089-.552.898-4.615 3.478-4.587 7.629-5.09.095 11.309.781 22.604 1.588 33.891-.697.101-.673 1.218.088 1.229.079 1.095.155 2.188.235 3.283-1.742.038-3.484.077-5.228.136-.804.027-.807 1.277 0 1.25 1.773-.06 3.547-.101 5.318-.142l.213 2.91c-6.526.5-13.078.69-19.646.649-4.522-.028-8.973-.37-13.402-.833 1.512-12.646 2.889-25.31 3.557-38.021 2.26.069 4.349-.268 6.061-1.175zm28.398 38.936-.189-2.595c4.241-.13 8.473-.351 12.686-.892-.294.632-.571 1.272-.855 1.91a177.451 177.451 0 0 1-11.642 1.577zm13.139-4.833c-4.455.624-8.933.866-13.42.998l-.226-3.144c5.062.001 10.121-.122 15.116-.875-.504 1-.987 2.011-1.47 3.021zm2.181-4.383c-5.253.883-10.584.997-15.915.991-.076-1.061-.152-2.12-.226-3.181a239.332 239.332 0 0 1 17.758-.886 183.513 183.513 0 0 0-1.617 3.076zm-40.348 95.663c-9.587-.145-21.256-4.425-24.37-13.732 8.952 2.974 18.958 3.613 28.219 3.243 7.918-.315 16.259-1.256 23.773-4.109a21.18 21.18 0 0 1-1.362 2.584c-6.673 2.866-14.221 3.268-21.398 2.993-.807-.031-.803 1.22 0 1.25 6.729.257 13.75-.118 20.133-2.418a21.275 21.275 0 0 1-1.458 1.694c-6.498 1.379-13.037 1.783-19.675 1.808-.806.003-.806 1.253 0 1.25 6.052-.021 12.028-.361 17.957-1.442a24.507 24.507 0 0 1-2.655 1.961.606.606 0 0 0-.467-.08c-5.668 1.241-11.394 1.31-17.168 1.312-.806 0-.806 1.25 0 1.25 4.922-.002 9.814-.075 14.659-.835-4.888 2.323-10.589 3.356-16.188 3.271zm31.745-33.645c-5.384 2.951-11.382 4.472-17.549 4.29-.807-.023-.805 1.227 0 1.25 6.205.184 12.29-1.32 17.745-4.222.069 1.113-.127 2.115-.568 3.03-6.204 1.735-12.313 3.725-18.844 3.608-.807-.015-.805 1.235 0 1.25 6.142.11 11.913-1.6 17.741-3.253-1.119 1.23-2.762 2.302-4.897 3.286-6.262 2.888-13.892 3.5-20.684 3.876-7.625.421-15.261-.157-22.713-1.849-3.401-.771-8.667-1.907-10.861-4.955-.913-1.268-.91-4.563-.62-7.068 9.654 3.891 20.774 4.843 30.967 5.202 7.938.279 20.222-1.255 30.017-5.4.106.327.195.646.266.955z" fill="#466087" class="fill-2f353a"></path></svg>