<svg viewBox="0 0 24 24" xml:space="preserve" xmlns="http://www.w3.org/2000/svg"><path d="M12 24.5a.501.501 0 0 1-.5-.5V0c0-.275.225-.5.5-.5s.5.225.5.5v24c0 .275-.225.5-.5.5zM7.5 1.5a1 1 0 1 1 0 2 1 1 0 0 1 0-2m0-1a2 2 0 1 0 .001 4.001A2 2 0 0 0 7.5.5z" fill="#3269ba" class="fill-000000"></path><path d="M12 5.834a.497.497 0 0 1-.277-.084L8.536 3.625a.502.502 0 0 1-.14-.693.502.502 0 0 1 .692-.139l3.188 2.125a.501.501 0 0 1-.276.916zM7.5 7.5a1 1 0 1 1 0 2 1 1 0 0 1 0-2m0-1a2 2 0 1 0 .001 4.001A2 2 0 0 0 7.5 6.5z" fill="#3269ba" class="fill-000000"></path><path d="M12 11.834a.497.497 0 0 1-.277-.084L8.536 9.625a.502.502 0 0 1-.14-.693.502.502 0 0 1 .692-.139l3.188 2.125a.501.501 0 0 1-.276.916zM7.5 13.5a1 1 0 1 1 0 2 1 1 0 0 1 0-2m0-1a2 2 0 1 0 .001 4.001A2 2 0 0 0 7.5 12.5z" fill="#3269ba" class="fill-000000"></path><path d="M12 17.834a.497.497 0 0 1-.277-.084l-3.187-2.125a.502.502 0 0 1-.14-.693.5.5 0 0 1 .692-.139l3.188 2.125a.501.501 0 0 1-.276.916zM16.5 4.5a1 1 0 1 1 0 2 1 1 0 0 1 0-2m0-1a2 2 0 1 0 .001 4.001A2 2 0 0 0 16.5 3.5z" fill="#3269ba" class="fill-000000"></path><path d="M12 8.834a.5.5 0 0 1-.277-.916l3.188-2.125a.498.498 0 1 1 .553.832L12.277 8.75a.497.497 0 0 1-.277.084zM16.5 10.5a1 1 0 1 1 0 2 1 1 0 0 1 0-2m0-1a2 2 0 1 0 .001 4.001A2 2 0 0 0 16.5 9.5z" fill="#3269ba" class="fill-000000"></path><path d="M12 14.834a.5.5 0 0 1-.277-.916l3.188-2.125a.497.497 0 0 1 .692.139c.151.229.09.54-.141.693l-3.187 2.125a.486.486 0 0 1-.275.084zM16.5 16.5a1 1 0 1 1 0 2 1 1 0 0 1 0-2m0-1a2 2 0 1 0 .001 4.001A2 2 0 0 0 16.5 15.5z" fill="#3269ba" class="fill-000000"></path><path d="M12 20.834a.5.5 0 0 1-.277-.916l3.188-2.125a.499.499 0 1 1 .551.832l-3.187 2.125a.486.486 0 0 1-.275.084z" fill="#3269ba" class="fill-000000"></path></svg>