<svg xmlns="http://www.w3.org/2000/svg" viewBox="0 0 512 512" xml:space="preserve" enable-background="new 0 0 512 512"><path d="m509.736 266.144-50-90a10 10 0 0 0-8.742-5.144h-86.973l-98.027-65.352V71h70c5.523 0 10-4.478 10-10V11c0-5.522-4.477-10-10-10h-80c-5.523 0-10 4.478-10 10v94.648L147.967 171H60.994a10 10 0 0 0-8.742 5.144l-50 90A10 10 0 0 0 10.994 281h10v47.51c0 5.522 4.477 10 10 10s10-4.478 10-10V281h100v210h-100V368.51c0-5.522-4.477-10-10-10s-10 4.478-10 10V501c0 5.522 4.477 10 10 10h450c5.523 0 10-4.478 10-10V357.41c0-5.522-4.477-10-10-10s-10 4.478-10 10V491h-100V281h100v36.41c0 5.522 4.477 10 10 10s10-4.478 10-10V281h10c7.613 0 12.441-8.197 8.742-14.856zM461.777 221h-90.783v-30h74.116l16.667 30zM265.994 21h60v30h-60V21zM66.879 191h74.116v30H50.212l16.667-30zm-38.89 70L39.1 241h101.894v20H27.989zm303.005 230v-35c0-5.522-4.477-10-10-10s-10 4.478-10 10v35h-110v-95c0-30.327 24.673-55 55-55 30.392 0 55 24.604 55 55v20c0 5.522 4.477 10 10 10s10-4.478 10-10v-20c0-41.446-33.548-75-75-75-41.355 0-75 33.645-75 75v95h-20V186.352l95-63.333 95 63.333V491h-20zm40-230v-20h101.894l11.111 20H370.994z" fill="#305285" class="fill-000000"></path><path d="M110.994 371c5.523 0 10-4.478 10-10v-20c0-16.542-13.458-30-30-30s-30 13.458-30 30v20c0 5.522 4.477 10 10 10h40zm-30-30c0-5.514 4.486-10 10-10s10 4.486 10 10v10h-20v-10zM60.994 451c0 5.522 4.477 10 10 10h40c5.523 0 10-4.478 10-10v-20c0-16.542-13.458-30-30-30s-30 13.458-30 30v20zm20-20c0-5.514 4.486-10 10-10s10 4.486 10 10v10h-20v-10zM450.994 341c0-16.542-13.458-30-30-30s-30 13.458-30 30v20c0 5.522 4.477 10 10 10h40c5.523 0 10-4.478 10-10v-20zm-20 10h-20v-10c0-5.514 4.486-10 10-10s10 4.486 10 10v10zM420.994 401c-16.542 0-30 13.458-30 30v20c0 5.522 4.477 10 10 10h40c5.523 0 10-4.478 10-10v-20c0-16.542-13.458-30-30-30zm10 40h-20v-10c0-5.514 4.486-10 10-10s10 4.486 10 10v10zM255.994 161c-37.22 0-67.5 30.28-67.5 67.5s30.28 67.5 67.5 67.5 67.5-30.28 67.5-67.5-30.28-67.5-67.5-67.5zm0 115c-26.191 0-47.5-21.309-47.5-47.5s21.309-47.5 47.5-47.5 47.5 21.309 47.5 47.5-21.308 47.5-47.5 47.5z" fill="#305285" class="fill-000000"></path><path d="M275.994 221h-10v-10c0-5.522-4.477-10-10-10s-10 4.478-10 10v20c0 5.522 4.477 10 10 10h20c5.523 0 10-4.478 10-10s-4.477-10-10-10z" fill="#305285" class="fill-000000"></path></svg>