<svg viewBox="0 0 64 64" xmlns="http://www.w3.org/2000/svg"><path d="M32.444 1.246a16.07 16.07 0 1 0 16.07 16.07 16.07 16.07 0 0 0-16.07-16.07Zm-1.259 14.933h2.471a4.175 4.175 0 0 1 .008 8.35v2.057a1.35 1.35 0 1 1-2.7 0v-2.057h-2.816a1.35 1.35 0 0 1 0-2.7h5.508a1.475 1.475 0 1 0 0-2.95h-2.47a4.379 4.379 0 0 1-.221-8.752v-2.08a1.35 1.35 0 1 1 2.699 0v2.057h3.075a1.35 1.35 0 0 1 0 2.7h-5.554a1.687 1.687 0 1 0 0 3.374ZM15.106 36.736H8.548a1.043 1.043 0 0 0-1.043 1.044v22.381a1.044 1.044 0 0 0 1.043 1.043h6.558a2.275 2.275 0 0 0 2.274-2.274V39.01a2.275 2.275 0 0 0-2.274-2.274ZM56.328 39.364a3.804 3.804 0 0 0-3.185-1.716h-2.57a5.55 5.55 0 0 0-5.145 3.443 5.75 5.75 0 0 1-1.024 1.619 8.378 8.378 0 0 1-6.684 3.8h-7.612a1.35 1.35 0 0 1 0-2.7h7.576a5.078 5.078 0 0 0 2.724-.877v-.046a5.219 5.219 0 0 0-5.218-5.239h-5.586a7.737 7.737 0 0 0-5.497 2.27l-.143.143a7.247 7.247 0 0 1-3.885 2.012v14.912H40.45a15.43 15.43 0 0 0 14.19-9.347l2.007-4.67a3.802 3.802 0 0 0-.32-3.604Z" fill="#4085ed" class="fill-000000"></path></svg>