<svg viewBox="0 0 64 64" xmlns="http://www.w3.org/2000/svg"><path d="M61.382 12.287 50.554 2.384a2.767 2.767 0 0 0-3.755 0l-10.827 9.903a2.334 2.334 0 0 0 1.575 4.056h4.298a.486.486 0 0 1 .485.486v28.915a2.288 2.288 0 0 0 2.286 2.286h7.883a2.288 2.288 0 0 0 2.286-2.286V16.83a.486.486 0 0 1 .485-.486h4.537a2.334 2.334 0 0 0 1.575-4.056ZM53.785 57.063H43.33a1.75 1.75 0 0 0 0 3.5h10.455a1.75 1.75 0 0 0 0-3.5ZM53.785 51.536H43.33a1.75 1.75 0 1 0 0 3.5h10.455a1.75 1.75 0 1 0 0-3.5Z" fill="#6a97d9" class="fill-000000"></path><rect height="23.682" rx="2.465" width="12.455" x="4.508" y="37.132" fill="#6a97d9" class="fill-000000"></rect><path d="M24.97 26.042h7.526a2.465 2.465 0 0 1 2.465 2.465V58.35a2.465 2.465 0 0 1-2.465 2.464H24.97a2.465 2.465 0 0 1-2.465-2.464V28.507a2.464 2.464 0 0 1 2.465-2.465Z" fill="#6a97d9" class="fill-000000"></path></svg>