<svg viewBox="0 0 96 96" xmlns="http://www.w3.org/2000/svg"><path d="M64 8H32a8 8 0 0 0-8 8v10h7v-7a4 4 0 0 1 4-4h26a4 4 0 0 1 4 4v7h7V16a8 8 0 0 0-8-8Z" fill="#575072" class="fill-575072"></path><rect height="62" rx="8" ry="8" width="92" x="2" y="26" fill="#6292d2" class="fill-eaeaea"></rect><path d="M64 8H32a8 8 0 0 0-8 8v10h7v-7a4 4 0 0 1 4-4h26a4 4 0 0 1 4 4v7h7V16a8 8 0 0 0-8-8Z" fill="none" stroke="#281a3b" stroke-linecap="round" stroke-linejoin="round" stroke-width="4px" class="stroke-281a3b"></path><path d="M56 66h9a3 3 0 0 0 3-3V53a3 3 0 0 0-3-3h-9v-9a3 3 0 0 0-3-3H43a3 3 0 0 0-3 3v9h-9a3 3 0 0 0-3 3v10a3 3 0 0 0 3 3h9v9a3 3 0 0 0 3 3h10a3 3 0 0 0 3-3Z" fill="#f47c6d" class="fill-f47c6d"></path><path d="M56 66h9a3 3 0 0 0 3-3V53a3 3 0 0 0-3-3h-9v-9a3 3 0 0 0-3-3H43a3 3 0 0 0-3 3v9h-9a3 3 0 0 0-3 3v10a3 3 0 0 0 3 3h9v9a3 3 0 0 0 3 3h10a3 3 0 0 0 3-3Z" fill="none" stroke="#281a3b" stroke-linecap="round" stroke-linejoin="round" stroke-width="4px" class="stroke-281a3b"></path><path d="M86 26H71a15 15 0 0 1 15 15v32a15 15 0 0 1-15 15h15a8 8 0 0 0 8-8V34a8 8 0 0 0-8-8Z" fill="#bacece" class="fill-bacece"></path><rect height="62" rx="8" ry="8" width="92" x="2" y="26" fill="none" stroke="#281a3b" stroke-linecap="round" stroke-linejoin="round" stroke-width="4px" class="stroke-281a3b"></rect></svg>