<?xml version="1.0" ?><!DOCTYPE svg  PUBLIC '-//W3C//DTD SVG 1.1//EN'  'http://www.w3.org/Graphics/SVG/1.1/DTD/svg11.dtd'><svg height="100%" style="fill-rule:evenodd;clip-rule:evenodd;stroke-linejoin:round;stroke-miterlimit:2;" version="1.1" viewBox="0 0 129 129" width="100%" xml:space="preserve" xmlns="http://www.w3.org/2000/svg" xmlns:serif="http://www.serif.com/" xmlns:xlink="http://www.w3.org/1999/xlink"><g transform="matrix(1,0,0,1,-315,-508)"><g id="wrench" transform="matrix(1,0,0,1,315.418,508.75)"><rect height="128" style="fill:none;" width="128" x="0" y="0"/><g><g transform="matrix(1,0,0,1,-6029.91,-3130.42)"><path d="M6135.14,3161.66L6152.61,3152.99C6152.61,3152.99 6152.15,3154.9 6151.55,3157.41C6150.39,3162.23 6147.89,3166.55 6144.42,3169.93C6142.19,3171.69 6139.79,3172.51 6137.22,3172.38L6135.14,3172.38L6135.14,3161.66Z" style="fill:rgb(182,182,182);"/></g><g transform="matrix(1,0,0,1,-6029.91,-3130.42)"><path d="M6142.27,3171.31C6140.67,3172.11 6138.99,3172.47 6137.22,3172.38L6135.14,3172.38L6135.14,3161.66L6152.61,3152.99C6152.61,3152.99 6152.15,3154.9 6151.55,3157.41C6151.44,3157.87 6151.31,3158.33 6151.18,3158.79L6142.27,3163.21L6142.27,3171.31Z" style="fill:rgb(136,136,136);"/></g><g transform="matrix(1,0,0,1,-6029.91,-3130.42)"><path d="M6103.25,3168.16C6105.92,3165.49 6107.53,3161.95 6107.79,3158.18C6108.1,3152.19 6110.53,3146.37 6115.04,3141.87C6125.08,3131.83 6141.66,3132.1 6152.04,3142.48C6152.17,3142.61 6152.3,3142.74 6152.42,3142.87C6149.05,3144.54 6136.5,3150.78 6136.5,3150.78C6136.5,3150.78 6136.5,3172.55 6136.5,3182.23C6136.5,3183.51 6135.95,3184.73 6135,3185.59C6134.05,3186.44 6132.78,3186.85 6131.5,3186.71C6130.36,3186.51 6129.22,3186.29 6128.08,3186C6124.1,3184.96 6119.87,3186.11 6116.96,3189.02C6103.66,3202.29 6068.83,3237.12 6053.84,3252.12C6049.96,3256 6043.66,3256 6039.78,3252.12C6038.72,3251.06 6037.63,3249.96 6036.57,3248.9C6032.69,3245.02 6032.69,3238.73 6036.57,3234.85C6052.3,3219.11 6090.02,3181.39 6103.25,3168.16ZM6050.2,3238.01C6051.9,3239.71 6051.9,3242.47 6050.2,3244.16C6048.5,3245.86 6045.75,3245.86 6044.05,3244.16C6042.35,3242.47 6042.35,3239.71 6044.05,3238.01C6045.75,3236.31 6048.5,3236.31 6050.2,3238.01Z" style="fill:rgb(182,182,182);"/></g><g transform="matrix(1,0,0,1,-6029.91,-3130.42)"><path d="M6146.34,3138.1C6148.38,3139.27 6150.3,3140.73 6152.04,3142.48C6152.17,3142.61 6152.3,3142.74 6152.42,3142.87C6149.05,3144.54 6136.5,3150.78 6136.5,3150.78C6136.5,3150.78 6136.5,3172.55 6136.5,3182.23C6136.5,3183.51 6135.95,3184.73 6135,3185.59C6134.05,3186.44 6132.78,3186.85 6131.5,3186.71C6130.36,3186.51 6129.22,3186.29 6128.08,3186C6124.1,3184.96 6119.87,3186.11 6116.96,3189.02C6103.66,3202.29 6068.83,3237.12 6053.84,3252.12C6049.96,3256 6043.66,3256 6039.78,3252.12C6038.72,3251.06 6037.63,3249.96 6036.57,3248.9C6036.23,3248.56 6035.92,3248.21 6035.64,3247.84C6039.53,3250.76 6045.09,3250.45 6048.63,3246.91C6063.62,3231.92 6098.46,3197.09 6111.75,3183.81C6114.66,3180.9 6118.9,3179.76 6122.88,3180.8C6124.01,3181.09 6125.15,3181.3 6126.3,3181.51C6127.57,3181.65 6128.84,3181.24 6129.79,3180.38C6130.75,3179.53 6131.29,3178.31 6131.29,3177.03C6131.29,3167.35 6131.29,3145.57 6131.29,3145.57L6146.34,3138.1Z" style="fill:rgb(136,136,136);"/></g><g transform="matrix(1,0,0,1,-6029.91,-3130.42)"><path d="M6041.11,3253.23C6040.65,3252.91 6040.2,3252.53 6039.78,3252.12C6038.72,3251.06 6037.63,3249.96 6036.57,3248.9C6032.69,3245.02 6032.69,3238.73 6036.57,3234.85C6052.3,3219.11 6090.02,3181.39 6103.25,3168.16C6105.92,3165.49 6107.53,3161.95 6107.79,3158.18C6108.1,3152.19 6110.53,3146.37 6115.04,3141.87C6125.08,3131.83 6141.66,3132.1 6152.04,3142.48C6152.17,3142.61 6152.3,3142.74 6152.42,3142.87L6151.35,3143.4C6141.38,3138.02 6128.88,3139.36 6120.7,3147.53C6116.19,3152.04 6113.77,3157.86 6113.45,3163.85C6113.19,3167.61 6111.58,3171.16 6108.91,3173.83L6045.8,3236.94C6045.16,3237.14 6044.56,3237.5 6044.05,3238.01C6043.54,3238.52 6043.18,3239.12 6042.98,3239.76L6042.23,3240.51C6038.77,3243.97 6038.4,3249.36 6041.11,3253.23Z" style="fill:rgb(200,200,200);"/></g><g transform="matrix(1,0,0,1,-6029.91,-3130.42)"><path d="M6096.59,3186.17C6098.25,3184.51 6100.61,3184.16 6101.85,3185.41C6101.85,3185.41 6101.85,3185.41 6101.85,3185.41C6103.09,3186.65 6102.75,3189.01 6101.09,3190.67L6064.36,3227.39C6062.7,3229.06 6060.34,3229.4 6059.1,3228.16C6059.1,3228.16 6059.1,3228.16 6059.1,3228.16C6057.86,3226.91 6058.2,3224.56 6059.87,3222.89L6096.59,3186.17Z" style="fill:rgb(136,136,136);"/></g><g transform="matrix(1,0,0,1,-6029.91,-3130.42)"><path d="M6119.19,3176.96C6118.69,3177.22 6118.09,3177.2 6117.6,3176.91C6117.12,3176.61 6116.81,3176.1 6116.8,3175.53C6116.72,3171.88 6116.56,3165.41 6116.51,3162.9C6116.49,3162.26 6116.84,3161.68 6117.41,3161.39C6118.68,3160.74 6121.02,3159.56 6122.81,3158.65C6123.32,3158.39 6123.93,3158.42 6124.42,3158.72C6124.9,3159.02 6125.2,3159.55 6125.2,3160.12C6125.2,3163.85 6125.2,3170.4 6125.2,3172.91C6125.2,3173.53 6124.85,3174.1 6124.3,3174.38C6123.09,3174.99 6120.89,3176.1 6119.19,3176.96Z" style="fill:rgb(136,136,136);"/></g><g transform="matrix(1,0,0,1,-6029.91,-3130.42)"><path d="M6121.4,3159.37L6122.81,3158.65C6123.32,3158.39 6123.93,3158.42 6124.42,3158.72C6124.9,3159.02 6125.2,3159.55 6125.2,3160.12C6125.2,3163.85 6125.2,3170.4 6125.2,3172.91C6125.2,3173.53 6124.85,3174.1 6124.3,3174.38C6123.09,3174.99 6120.89,3176.1 6119.19,3176.96C6118.69,3177.22 6118.09,3177.2 6117.6,3176.91C6117.33,3176.74 6117.12,3176.51 6116.98,3176.25L6120.68,3174.38C6121.23,3174.1 6121.58,3173.53 6121.58,3172.91C6121.58,3170.4 6121.58,3163.85 6121.58,3160.12C6121.58,3159.86 6121.52,3159.6 6121.4,3159.37Z" style="fill:rgb(102,102,102);"/></g></g></g></g></svg>